<?xml version="1.0" encoding="UTF-8" standalone="no"?>
<!DOCTYPE svg PUBLIC "-//W3C//DTD SVG 1.1//EN" "http://www.w3.org/Graphics/SVG/1.1/DTD/svg11.dtd">
<svg width="100%" height="100%" viewBox="0 0 68 17" version="1.1" xmlns="http://www.w3.org/2000/svg" xmlns:xlink="http://www.w3.org/1999/xlink" xml:space="preserve" xmlns:serif="http://www.serif.com/" style="fill-rule:evenodd;clip-rule:evenodd;stroke-linejoin:round;stroke-miterlimit:2;">
    <g>
        <path d="M1.985,12.048c0.016,0.361 0.076,0.677 0.181,0.948c0.105,0.256 0.218,0.451 0.338,0.587c0.136,0.12 0.309,0.218 0.519,0.293c0.226,0.06 0.391,0.098 0.497,0.113l2.414,-0l-0,1.805l-2.279,-0c-1.098,-0.015 -1.978,-0.369 -2.64,-1.061c-0.646,-0.692 -0.985,-1.624 -1.015,-2.798l0,-11.348l1.985,-0l0,3.384l3.949,-0l-0,1.805l-3.949,-0l0,6.272Z" style="fill:#eee;fill-rule:nonzero;"/>
        <path d="M18.704,5.392c1.158,1.144 1.737,2.64 1.737,4.49c0,1.85 -0.579,3.355 -1.737,4.513c-1.143,1.143 -2.61,1.715 -4.399,1.715c-1.79,-0 -3.257,-0.572 -4.4,-1.715c-1.143,-1.158 -1.715,-2.663 -1.715,-4.513c0,-1.85 0.572,-3.346 1.715,-4.49c1.143,-1.158 2.61,-1.737 4.4,-1.737c1.789,0 3.256,0.579 4.399,1.737Zm-1.421,7.739c0.782,-0.782 1.173,-1.865 1.173,-3.249c-0,-1.384 -0.391,-2.467 -1.173,-3.249c-0.767,-0.782 -1.76,-1.173 -2.978,-1.173c-1.219,0 -2.212,0.391 -2.979,1.173c-0.767,0.782 -1.15,1.865 -1.15,3.249c-0,1.384 0.383,2.467 1.15,3.249c0.767,0.782 1.76,1.174 2.979,1.174c1.218,-0 2.211,-0.392 2.978,-1.174Z" style="fill:#eee;fill-rule:nonzero;"/>
        <path d="M33.212,5.392c1.158,1.144 1.737,2.64 1.737,4.49c0,1.85 -0.579,3.355 -1.737,4.513c-1.143,1.143 -2.61,1.715 -4.4,1.715c-1.79,-0 -3.256,-0.572 -4.4,-1.715c-1.143,-1.158 -1.714,-2.663 -1.714,-4.513c-0,-1.85 0.571,-3.346 1.714,-4.49c1.144,-1.158 2.61,-1.737 4.4,-1.737c1.79,0 3.257,0.579 4.4,1.737Zm-1.422,7.739c0.782,-0.782 1.174,-1.865 1.174,-3.249c-0,-1.384 -0.392,-2.467 -1.174,-3.249c-0.767,-0.782 -1.76,-1.173 -2.978,-1.173c-1.218,0 -2.211,0.391 -2.978,1.173c-0.767,0.782 -1.151,1.865 -1.151,3.249c0,1.384 0.384,2.467 1.151,3.249c0.767,0.782 1.76,1.174 2.978,1.174c1.218,-0 2.211,-0.392 2.978,-1.174Z" style="fill:#eee;fill-rule:nonzero;"/>
        <path d="M39.642,11.417c0,1.052 0.181,1.744 0.542,2.075c0.361,0.331 1.165,0.497 2.414,0.497l-0,1.805l-0.113,-0c-0.827,-0 -1.512,-0.061 -2.053,-0.181c-0.542,-0.12 -1.038,-0.338 -1.489,-0.654c-0.437,-0.316 -0.76,-0.775 -0.971,-1.376c-0.195,-0.617 -0.3,-1.392 -0.315,-2.324l-0,-11.259l1.985,0l0,11.417Z" style="fill:#eee;fill-rule:nonzero;"/>
        <path d="M44.29,7.355c-0,-0.301 0.052,-0.624 0.158,-0.97c0.12,-0.346 0.323,-0.737 0.609,-1.173c0.286,-0.451 0.76,-0.82 1.421,-1.106c0.677,-0.3 1.49,-0.451 2.437,-0.451c1.685,0 3.204,0.512 4.558,1.534l-1.174,1.489c-0.06,-0.06 -0.218,-0.165 -0.473,-0.315c-0.241,-0.166 -0.64,-0.354 -1.196,-0.564c-0.557,-0.211 -1.106,-0.324 -1.647,-0.339c-0.903,0 -1.58,0.188 -2.031,0.564c-0.451,0.361 -0.677,0.782 -0.677,1.264c0,0.316 0.091,0.579 0.271,0.789c0.496,0.497 1.316,0.813 2.459,0.948c0.467,0.06 0.873,0.128 1.219,0.203c0.361,0.06 0.782,0.18 1.263,0.361c0.497,0.165 0.903,0.369 1.219,0.609c0.315,0.226 0.586,0.542 0.812,0.948c0.241,0.406 0.361,0.872 0.361,1.399c-0,0.24 -0.023,0.489 -0.068,0.744c-0.045,0.241 -0.173,0.542 -0.383,0.903c-0.196,0.361 -0.467,0.677 -0.813,0.947c-0.331,0.256 -0.827,0.482 -1.489,0.677c-0.647,0.196 -1.406,0.294 -2.279,0.294c-1.759,-0 -3.391,-0.504 -4.896,-1.512l1.061,-1.557c1.233,0.812 2.482,1.233 3.745,1.264c0.316,-0 0.617,-0.016 0.903,-0.046c0.301,-0.045 0.639,-0.12 1.015,-0.225c0.376,-0.121 0.677,-0.309 0.902,-0.564c0.226,-0.256 0.339,-0.579 0.339,-0.97c-0,-0.858 -1.053,-1.444 -3.159,-1.76c-0.346,-0.06 -0.617,-0.106 -0.812,-0.136c-0.181,-0.045 -0.481,-0.12 -0.903,-0.225c-0.421,-0.106 -0.767,-0.233 -1.037,-0.384c-0.256,-0.165 -0.534,-0.361 -0.835,-0.587c-0.286,-0.225 -0.504,-0.511 -0.655,-0.857c-0.15,-0.361 -0.225,-0.759 -0.225,-1.196Z" style="fill:#eee;fill-rule:nonzero;"/>
        <circle cx="61.52" cy="9.882" r="1.25" style="fill:url(#_Linear1);"/>
        <path d="M56.953,8.398l-1.255,-0.725c0.238,-0.626 0.575,-1.21 0.998,-1.728l1.255,0.724c-0.222,0.247 -0.895,1.413 -0.998,1.729Zm3.569,-3.213l0,-1.449c0.661,-0.108 1.335,-0.108 1.996,-0l0,1.449c-0.324,-0.069 -1.671,-0.069 -1.996,-0Zm4.567,1.484l1.255,-0.724c0.424,0.518 0.761,1.102 0.998,1.728l-1.255,0.725c-0.102,-0.316 -0.776,-1.482 -0.998,-1.729Zm0.998,4.698l1.255,0.724c-0.237,0.626 -0.574,1.21 -0.998,1.729l-1.255,-0.725c0.222,-0.246 0.896,-1.413 0.998,-1.728Zm-3.569,3.213l0,1.449c-0.661,0.107 -1.335,0.107 -1.996,-0l0,-1.449c0.325,0.069 1.672,0.069 1.996,-0Zm-4.567,-1.485l-1.255,0.725c-0.423,-0.519 -0.76,-1.103 -0.998,-1.729l1.255,-0.724c0.103,0.315 0.776,1.482 0.998,1.728Z" style="fill:url(#_Linear2);"/>
        <path d="M61.52,5.08c1.716,-0 3.301,0.915 4.159,2.401c0.858,1.486 0.858,3.317 0,4.802c-0.858,1.486 -2.443,2.402 -4.159,2.402c-1.715,-0 -3.301,-0.916 -4.159,-2.402c-0.858,-1.485 -0.858,-3.316 0,-4.802c0.858,-1.486 2.444,-2.401 4.159,-2.401Zm0,1.802c-1.656,-0 -3,1.344 -3,3c-0,1.656 1.344,3.001 3,3.001c1.656,-0 3.001,-1.345 3.001,-3.001c-0,-1.656 -1.345,-3 -3.001,-3Z" style="fill:url(#_Linear3);"/>
    </g>
    <defs>
        <linearGradient id="_Linear1" x1="0" y1="0" x2="1" y2="0" gradientUnits="userSpaceOnUse" gradientTransform="matrix(1.53081e-16,2.5,-2.5,1.53081e-16,61.5202,8.6323)"><stop offset="0" style="stop-color:#2cf;stop-opacity:1"/><stop offset="1" style="stop-color:#1fb5e3;stop-opacity:1"/></linearGradient>
        <linearGradient id="_Linear2" x1="0" y1="0" x2="1" y2="0" gradientUnits="userSpaceOnUse" gradientTransform="matrix(7.62612e-16,12.4544,-12.4544,7.62612e-16,61.5202,3.6551)"><stop offset="0" style="stop-color:#1fb5e3;stop-opacity:1"/><stop offset="1" style="stop-color:#1894bc;stop-opacity:1"/></linearGradient>
        <linearGradient id="_Linear3" x1="0" y1="0" x2="1" y2="0" gradientUnits="userSpaceOnUse" gradientTransform="matrix(5.88112e-16,9.6046,-9.6046,5.88112e-16,61.5202,5.08)"><stop offset="0" style="stop-color:#2cf;stop-opacity:1"/><stop offset="1" style="stop-color:#1fb5e3;stop-opacity:1"/></linearGradient>
    </defs>
</svg>
