<?xml version="1.0" encoding="UTF-8" standalone="no"?><!DOCTYPE svg PUBLIC "-//W3C//DTD SVG 1.1//EN" "http://www.w3.org/Graphics/SVG/1.1/DTD/svg11.dtd"><svg width="100%" height="100%" viewBox="0 0 517 128" version="1.1" xmlns="http://www.w3.org/2000/svg" xmlns:xlink="http://www.w3.org/1999/xlink" xml:space="preserve" xmlns:serif="http://www.serif.com/" style="fill-rule:evenodd;clip-rule:evenodd;stroke-linejoin:round;stroke-miterlimit:2;"><g><path d="M43.36,125.599l14.572,0l-0,-14.886l-11.892,0c-9.212,0 -12.73,-5.026 -12.73,-13.404l0,-44.904l25.459,-0l0,-14.384l-25.459,0l0,-24.789l-16.562,0l0,19.262c0,3.517 -2.176,5.695 -5.191,5.695l-11.557,-0l0,14.216l15.744,-0l0,45.407c0,18.254 10.373,27.787 27.616,27.787Z" style="fill:#eee;fill-rule:nonzero;"/><path d="M119.748,127.777c26.808,-0 46.217,-19.745 46.217,-45.883c0,-26.138 -19.074,-46.05 -46.05,-46.05c-26.976,-0 -46.385,19.744 -46.385,46.05c-0,26.306 19.241,45.883 46.218,45.883Zm-0,-15.891c-16.421,-0 -28.317,-12.567 -28.317,-29.992c-0,-17.258 11.729,-29.992 28.317,-29.992c16.587,0 28.317,12.566 28.317,29.992c-0,17.258 -11.73,29.992 -28.317,29.992Z" style="fill:#eee;fill-rule:nonzero;"/><path d="M227.279,127.777c26.808,-0 46.217,-19.745 46.217,-45.883c0,-26.138 -19.074,-46.05 -46.05,-46.05c-26.976,-0 -46.385,19.744 -46.385,46.05c-0,26.306 19.241,45.883 46.218,45.883Zm-0,-15.891c-16.421,-0 -28.317,-12.567 -28.317,-29.992c-0,-17.258 11.729,-29.992 28.317,-29.992c16.588,0 28.317,12.566 28.317,29.992c-0,17.258 -11.729,29.992 -28.317,29.992Z" style="fill:#eee;fill-rule:nonzero;"/><path d="M311.685,125.599l7.202,0l0,-15.556l-3.685,0c-4.354,0 -6.699,-2.512 -6.699,-7.202l-0,-102.841l-17.566,0l-0,103.846c-0,13.725 7.528,21.753 20.748,21.753Z" style="fill:#eee;fill-rule:nonzero;"/><path d="M371.658,127.777c21.948,-0 35.499,-11.54 35.499,-28.093c-0,-37.198 -51.924,-19.077 -51.924,-38.541c0,-6.549 6.201,-11.251 16.089,-11.251c10.559,0 16.257,4.87 17.263,12.258l16.062,0c-1.338,-16.773 -15.057,-26.306 -32.654,-26.306c-20.105,-0 -33.153,10.871 -33.153,25.634c0,35.698 51.253,17.621 51.253,39.042c0,7.69 -6.369,12.873 -17.933,12.873c-11.396,0 -17.93,-4.681 -19.101,-13.709l-16.564,-0c1.173,16.887 12.884,28.093 35.163,28.093Z" style="fill:#eee;fill-rule:nonzero;"/></g><g><path d="M499.804,90.85l16.195,16.525c-2.907,3.882 -6.353,7.328 -10.235,10.235c0,-0 -11.816,-11.58 -11.816,-11.58l-0.589,0.361c-3.104,1.903 -6.487,3.304 -10.027,4.153l-0.672,0.161l-0.167,16.544c-4.8,0.69 -9.674,0.69 -14.474,0c-0,0 -0.168,-16.544 -0.168,-16.544l-0.671,-0.161c-3.54,-0.849 -6.924,-2.25 -10.027,-4.153l-0.589,-0.361l-10.471,-10.471l-0.361,-0.589c-1.903,-3.104 -3.305,-6.488 -4.154,-10.027l-0.161,-0.672l-16.544,-0.167c-0.689,-4.8 -0.689,-9.674 0,-14.474c0,-0 16.544,-0.168 16.544,-0.168l0.161,-0.671c0.849,-3.54 2.251,-6.924 4.154,-10.027l0.361,-0.589l-11.58,-11.817c2.906,-3.881 6.353,-7.328 10.234,-10.234l16.547,16.215c-0.506,3.341 -0.512,6.742 -0.017,10.083l-0.416,0.419l0.001,-0.001c-7.661,7.857 -7.6,20.456 0.182,28.238c7.844,7.844 20.58,7.844 28.423,0l0.218,-0.217c3.353,0.501 6.768,0.497 10.119,-0.011Z" style="fill:url(#_Linear1);"/><path d="M475.214,66.723c-3.817,-8.02 -2.407,-17.915 4.228,-24.55c6.652,-6.652 16.58,-8.052 24.611,-4.199l-14.405,14.405l-0.032,0.033c-2.76,2.794 -2.749,7.303 0.032,10.084c2.792,2.791 7.325,2.791 10.117,-0l14.405,-14.406c3.853,8.031 2.453,17.96 -4.199,24.612c-6.635,6.635 -16.53,8.045 -24.551,4.228l-40.677,40.677c-3.885,-2.97 -7.33,-6.347 -10.23,-10.232l40.701,-40.652Z" style="fill:#19f;"/></g><defs><linearGradient id="_Linear1" x1="0" y1="0" x2="1" y2="0" gradientUnits="userSpaceOnUse" gradientTransform="matrix(72.0947,72.0947,-72.0947,72.0947,434.141,45.9082)"><stop offset="0" style="stop-color:#1089e6;stop-opacity:1"/><stop offset="0.5" style="stop-color:#0d72bf;stop-opacity:1"/><stop offset="1" style="stop-color:#1089e6;stop-opacity:1"/></linearGradient></defs></svg>