<?xml version="1.0" encoding="UTF-8" standalone="no"?>
<!DOCTYPE svg PUBLIC "-//W3C//DTD SVG 1.1//EN" "http://www.w3.org/Graphics/SVG/1.1/DTD/svg11.dtd">
<svg width="100%" height="100%" viewBox="0 0 12 13" version="1.1" xmlns="http://www.w3.org/2000/svg" xmlns:xlink="http://www.w3.org/1999/xlink" xml:space="preserve" xmlns:serif="http://www.serif.com/" style="fill-rule:evenodd;clip-rule:evenodd;stroke-linejoin:round;stroke-miterlimit:2;">
    <circle cx="5.822" cy="6.227" r="1.25" style="fill:url(#_Linear1);"/>
    <path d="M1.255,4.743l-1.255,-0.725c0.238,-0.626 0.575,-1.21 0.998,-1.729l1.255,0.725c-0.222,0.247 -0.895,1.413 -0.998,1.729Zm3.569,-3.213l0,-1.449c0.661,-0.108 1.335,-0.108 1.996,-0l0,1.449c-0.324,-0.069 -1.671,-0.069 -1.996,-0Zm4.567,1.484l1.255,-0.725c0.424,0.519 0.761,1.103 0.998,1.729l-1.255,0.725c-0.102,-0.316 -0.776,-1.482 -0.998,-1.729Zm0.998,4.698l1.255,0.724c-0.237,0.626 -0.574,1.21 -0.998,1.729l-1.255,-0.725c0.222,-0.246 0.896,-1.413 0.998,-1.728Zm-3.569,3.213l0,1.449c-0.661,0.107 -1.335,0.107 -1.996,-0l0,-1.449c0.325,0.069 1.672,0.069 1.996,-0Zm-4.567,-1.485l-1.255,0.725c-0.423,-0.519 -0.76,-1.103 -0.998,-1.729l1.255,-0.724c0.103,0.315 0.776,1.482 0.998,1.728Z" style="fill:url(#_Linear2);"/>
    <path d="M5.822,1.425c1.716,-0 3.301,0.915 4.159,2.401c0.858,1.486 0.858,3.317 0,4.802c-0.858,1.486 -2.443,2.402 -4.159,2.402c-1.715,-0 -3.301,-0.916 -4.159,-2.402c-0.858,-1.485 -0.858,-3.316 0,-4.802c0.858,-1.486 2.444,-2.401 4.159,-2.401Zm0,1.802c-1.656,-0 -3,1.344 -3,3c-0,1.656 1.344,3.001 3,3.001c1.656,-0 3.001,-1.345 3.001,-3.001c-0,-1.656 -1.345,-3 -3.001,-3Z" style="fill:url(#_Linear3);"/>
    <defs>
        <linearGradient id="_Linear1" x1="0" y1="0" x2="1" y2="0" gradientUnits="userSpaceOnUse" gradientTransform="matrix(1.53081e-16,2.5,-2.5,1.53081e-16,5.82224,4.9772)"><stop offset="0" style="stop-color:#2cf;stop-opacity:1"/><stop offset="1" style="stop-color:#1fb5e3;stop-opacity:1"/></linearGradient>
        <linearGradient id="_Linear2" x1="0" y1="0" x2="1" y2="0" gradientUnits="userSpaceOnUse" gradientTransform="matrix(7.62612e-16,12.4544,-12.4544,7.62612e-16,5.82224,4.26326e-14)"><stop offset="0" style="stop-color:#1fb5e3;stop-opacity:1"/><stop offset="1" style="stop-color:#1894bc;stop-opacity:1"/></linearGradient>
        <linearGradient id="_Linear3" x1="0" y1="0" x2="1" y2="0" gradientUnits="userSpaceOnUse" gradientTransform="matrix(5.88112e-16,9.6046,-9.6046,5.88112e-16,5.82224,1.4249)"><stop offset="0" style="stop-color:#2cf;stop-opacity:1"/><stop offset="1" style="stop-color:#1fb5e3;stop-opacity:1"/></linearGradient>
    </defs>
</svg>
